<svg width="274" height="71" viewBox="0 0 274 71" fill="none" xmlns="http://www.w3.org/2000/svg">
<path d="M110.551 31.6777H102.711V53H97.4375V31.6777H89.7031V27.4062H110.551V31.6777Z" fill="#333333"/>
<path d="M123.128 38.7441C122.436 38.6504 121.827 38.6035 121.299 38.6035C119.378 38.6035 118.118 39.2539 117.52 40.5547V53H112.44V33.9805H117.239L117.38 36.248C118.399 34.502 119.811 33.6289 121.616 33.6289C122.178 33.6289 122.706 33.7051 123.198 33.8574L123.128 38.7441Z" fill="#333333"/>
<path d="M136.443 53C136.208 52.543 136.038 51.9746 135.933 51.2949C134.702 52.666 133.103 53.3516 131.134 53.3516C129.271 53.3516 127.724 52.8125 126.493 51.7344C125.275 50.6562 124.665 49.2969 124.665 47.6562C124.665 45.6406 125.409 44.0938 126.898 43.0156C128.398 41.9375 130.56 41.3926 133.384 41.3809H135.722V40.291C135.722 39.4121 135.493 38.709 135.036 38.1816C134.591 37.6543 133.882 37.3906 132.909 37.3906C132.054 37.3906 131.38 37.5957 130.888 38.0059C130.408 38.416 130.167 38.9785 130.167 39.6934H125.087C125.087 38.5918 125.427 37.5723 126.107 36.6348C126.786 35.6973 127.747 34.9648 128.99 34.4375C130.232 33.8984 131.626 33.6289 133.173 33.6289C135.517 33.6289 137.374 34.2207 138.745 35.4043C140.128 36.5762 140.82 38.2285 140.82 40.3613V48.6055C140.831 50.4102 141.083 51.7754 141.575 52.7012V53H136.443ZM132.241 49.4668C132.991 49.4668 133.683 49.3027 134.316 48.9746C134.949 48.6348 135.417 48.1836 135.722 47.6211V44.3516H133.824C131.281 44.3516 129.927 45.2305 129.763 46.9883L129.745 47.2871C129.745 47.9199 129.968 48.4414 130.413 48.8516C130.859 49.2617 131.468 49.4668 132.241 49.4668Z" fill="#333333"/>
<path d="M155.383 47.7441C155.383 47.123 155.072 46.6367 154.451 46.2852C153.842 45.9219 152.857 45.5996 151.498 45.3184C146.975 44.3691 144.713 42.4473 144.713 39.5527C144.713 37.8652 145.41 36.459 146.805 35.334C148.211 34.1973 150.045 33.6289 152.307 33.6289C154.721 33.6289 156.648 34.1973 158.09 35.334C159.543 36.4707 160.269 37.9473 160.269 39.7637H155.189C155.189 39.0371 154.955 38.4395 154.486 37.9707C154.018 37.4902 153.285 37.25 152.289 37.25C151.434 37.25 150.771 37.4434 150.303 37.8301C149.834 38.2168 149.6 38.709 149.6 39.3066C149.6 39.8691 149.863 40.3262 150.391 40.6777C150.93 41.0176 151.832 41.3164 153.098 41.5742C154.363 41.8203 155.43 42.1016 156.297 42.418C158.98 43.4023 160.322 45.1074 160.322 47.5332C160.322 49.2676 159.578 50.6738 158.09 51.752C156.601 52.8184 154.68 53.3516 152.324 53.3516C150.73 53.3516 149.312 53.0703 148.07 52.5078C146.84 51.9336 145.873 51.1543 145.17 50.1699C144.467 49.1738 144.115 48.1016 144.115 46.9531H148.932C148.978 47.8555 149.312 48.5469 149.934 49.0273C150.555 49.5078 151.387 49.748 152.43 49.748C153.402 49.748 154.135 49.5664 154.627 49.2031C155.131 48.8281 155.383 48.3418 155.383 47.7441Z" fill="#333333"/>
<path d="M168.926 36.0547C170.274 34.4375 171.967 33.6289 174.006 33.6289C178.131 33.6289 180.223 36.0254 180.282 40.8184V53H175.202V40.959C175.202 39.8691 174.967 39.0664 174.499 38.5508C174.03 38.0234 173.251 37.7598 172.161 37.7598C170.672 37.7598 169.594 38.334 168.926 39.4824V53H163.846V26H168.926V36.0547Z" fill="#333333"/>
<path d="M214.488 53H211.096L198.211 33.2773V53H194.818V27.4062H198.211L211.131 47.2168V27.4062H214.488V53Z" fill="#333333"/>
<path d="M223.866 53H220.614V33.9805H223.866V53ZM220.35 28.9355C220.35 28.4082 220.508 27.9629 220.825 27.5996C221.153 27.2363 221.633 27.0547 222.266 27.0547C222.899 27.0547 223.379 27.2363 223.708 27.5996C224.036 27.9629 224.2 28.4082 224.2 28.9355C224.2 29.4629 224.036 29.9023 223.708 30.2539C223.379 30.6055 222.899 30.7812 222.266 30.7812C221.633 30.7812 221.153 30.6055 220.825 30.2539C220.508 29.9023 220.35 29.4629 220.35 28.9355Z" fill="#333333"/>
<path d="M232.523 33.9805L232.628 36.3711C234.081 34.543 235.98 33.6289 238.323 33.6289C242.343 33.6289 244.37 35.8965 244.405 40.4316V53H241.153V40.4141C241.142 39.043 240.825 38.0293 240.204 37.373C239.595 36.7168 238.64 36.3887 237.339 36.3887C236.284 36.3887 235.359 36.6699 234.562 37.2324C233.765 37.7949 233.144 38.5332 232.698 39.4473V53H229.446V33.9805H232.523Z" fill="#333333"/>
<path d="M253.027 33.9805V55.1973C253.027 58.8535 251.369 60.6816 248.053 60.6816C247.338 60.6816 246.676 60.5762 246.066 60.3652V57.7637C246.441 57.8574 246.933 57.9043 247.543 57.9043C248.269 57.9043 248.82 57.7051 249.195 57.3066C249.582 56.9199 249.775 56.2402 249.775 55.2676V33.9805H253.027ZM249.441 28.9355C249.441 28.4199 249.599 27.9805 249.916 27.6172C250.244 27.2422 250.719 27.0547 251.34 27.0547C251.972 27.0547 252.453 27.2363 252.781 27.5996C253.109 27.9629 253.273 28.4082 253.273 28.9355C253.273 29.4629 253.109 29.9023 252.781 30.2539C252.453 30.6055 251.972 30.7812 251.34 30.7812C250.707 30.7812 250.232 30.6055 249.916 30.2539C249.599 29.9023 249.441 29.4629 249.441 28.9355Z" fill="#333333"/>
<path d="M270.385 53C270.198 52.625 270.045 51.957 269.928 50.9961C268.416 52.5664 266.612 53.3516 264.514 53.3516C262.639 53.3516 261.098 52.8242 259.891 51.7695C258.696 50.7031 258.098 49.3555 258.098 47.7266C258.098 45.7461 258.848 44.2109 260.348 43.1211C261.86 42.0195 263.981 41.4688 266.711 41.4688H269.875V39.9746C269.875 38.8379 269.536 37.9355 268.856 37.2676C268.176 36.5879 267.174 36.248 265.85 36.248C264.69 36.248 263.717 36.541 262.932 37.127C262.147 37.7129 261.754 38.4219 261.754 39.2539H258.485C258.485 38.3047 258.819 37.3906 259.487 36.5117C260.166 35.6211 261.08 34.918 262.229 34.4023C263.389 33.8867 264.661 33.6289 266.043 33.6289C268.235 33.6289 269.952 34.1797 271.194 35.2812C272.436 36.3711 273.08 37.877 273.127 39.7988V48.5527C273.127 50.2988 273.35 51.6875 273.795 52.7188V53H270.385ZM264.989 50.5215C266.008 50.5215 266.975 50.2578 267.889 49.7305C268.803 49.2031 269.465 48.5176 269.875 47.6738V43.7715H267.327C263.342 43.7715 261.35 44.9375 261.35 47.2695C261.35 48.2891 261.69 49.0859 262.37 49.6602C263.049 50.2344 263.922 50.5215 264.989 50.5215Z" fill="#333333"/>
<path fill-rule="evenodd" clip-rule="evenodd" d="M45.9079 0.972603C45.9079 0.435457 46.3471 0 46.889 0H51.3041C51.846 0 52.2852 0.435457 52.2852 0.972603V2.98073C61.9798 3.39779 70.1333 5.85111 73.9693 9.23973H76.323C76.8649 9.23973 77.3042 9.67518 77.3042 10.2123V12.6438C77.3042 13.181 76.8649 13.6164 76.323 13.6164H22.3606C21.8188 13.6164 21.3795 13.181 21.3795 12.6438V10.2123C21.3795 9.67518 21.8188 9.23973 22.3606 9.23973H24.7143C28.4855 5.90842 36.4293 3.48107 45.9079 3.00365V0.972603ZM43.5061 35.9863C45.5204 35.9863 47.1534 34.2445 47.1534 32.0959C47.1534 29.9473 45.5204 28.2055 43.5061 28.2055C41.4918 28.2055 39.8588 29.9473 39.8588 32.0959C39.8588 34.2445 41.4918 35.9863 43.5061 35.9863ZM55.6638 35.9863C57.6781 35.9863 59.3111 34.2445 59.3111 32.0959C59.3111 29.9473 57.6781 28.2055 55.6638 28.2055C53.6495 28.2055 52.0165 29.9473 52.0165 32.0959C52.0165 34.2445 53.6495 35.9863 55.6638 35.9863ZM73.9 14.589H25.2698L25.8323 21.5707C21.4814 18.4136 14.9894 17.2902 14.9894 17.2902C14.9894 17.2902 17.4339 25.369 22.8937 29.0227C12.2339 26.8005 7.76521 29.5554 0 35.013C13.1211 42.3641 26.6368 35.2742 26.6368 35.2742C26.6368 35.2742 26.741 35.1647 26.9112 34.9619L29.611 68.4712C29.726 69.8998 30.9086 71 32.3289 71H66.8409C68.2612 71 69.4437 69.8998 69.5588 68.4712L73.9 14.589ZM60.2885 37.4452C64.3144 37.4452 67.578 34.6201 67.578 31.1352C67.578 27.4029 63.8575 24.4865 59.564 24.8287C57.7248 24.9752 56.4078 25.2034 55.153 25.4208L55.1529 25.4208C53.3688 25.7298 51.7105 26.0171 48.8554 26.0171C45.9677 26.0171 44.3848 25.7301 42.6998 25.4246L42.6997 25.4246C41.5471 25.2156 40.3468 24.998 38.6485 24.8577C34.3536 24.5027 30.6191 27.4154 30.6191 31.1501C30.6191 34.6268 33.875 37.4452 37.8914 37.4452H60.2885Z" fill="#333333"/>
</svg>
